<?xml version="1.0" encoding="UTF-8"?>
<svg xmlns="http://www.w3.org/2000/svg" viewBox="0 0 1200 630" width="1200" height="630">
  <defs>
    <linearGradient id="g33731" x1="95.67727288213004%" y1="29.66316784620998%" x2="4.32272711786996%" y2="70.33683215379003%">
      <stop offset="0%" stop-color="#D97706"/>
      <stop offset="100%" stop-color="#B45309"/>
    </linearGradient>
  </defs>
  <rect width="1200" height="630" fill="url(#g33731)"/>
  <circle cx="424.2566183209419" cy="262.67116317525506" r="85.14152452349663" fill="none" stroke="rgba(255,255,255,0.12)" stroke-width="2"/><line x1="424.2566183209419" y1="262.67116317525506" x2="509.39814284443855" y2="262.67116317525506" stroke="rgba(255,255,255,0.15)" stroke-width="2"/><line x1="424.2566183209419" y1="262.67116317525506" x2="460.37910793161706" y2="298.7936527859302" stroke="rgba(255,255,255,0.15)" stroke-width="1"/><line x1="424.2566183209419" y1="262.67116317525506" x2="424.2566183209419" y2="347.8126876987517" stroke="rgba(255,255,255,0.15)" stroke-width="2"/><line x1="424.2566183209419" y1="262.67116317525506" x2="388.1341287102668" y2="298.7936527859302" stroke="rgba(255,255,255,0.15)" stroke-width="1"/><line x1="424.2566183209419" y1="262.67116317525506" x2="339.1150937974453" y2="262.67116317525506" stroke="rgba(255,255,255,0.15)" stroke-width="2"/><line x1="424.2566183209419" y1="262.67116317525506" x2="388.1341287102668" y2="226.54867356457993" stroke="rgba(255,255,255,0.15)" stroke-width="1"/><line x1="424.2566183209419" y1="262.67116317525506" x2="424.2566183209419" y2="177.52963865175843" stroke="rgba(255,255,255,0.15)" stroke-width="2"/><line x1="424.2566183209419" y1="262.67116317525506" x2="460.37910793161706" y2="226.54867356457993" stroke="rgba(255,255,255,0.15)" stroke-width="1"/><path d="M 600 180.2401787508279 L 600 197.14212293435924 L 620 149.61268083795528 L 640 170.14761708347825 L 660 196.00408734111483 L 680 196.20310521180716 L 700 204.80073984055792 L 720 200.89151747895065 L 740 184.92181241600727 L 760 196.18777510824503 L 780 196.0612767629093 L 800 178.73916689244808 L 820 162.8956188685616 L 840 199.36852999193496 L 860 189.56466679071207 L 880 159.25898500142628 L 900 163.37149307194727 L 920 155.25240710430447 L 940 173.35455460311192 L 960 159.51390374320007 L 980 199.18073274971232 L 1000 164.26129293845688 L 1020 174.19037994839766 L 1040 205.00164839727705 L 1060 165.65112661113042 L 1080 193.3393890624935 L 1100 213.19176396152056" fill="none" stroke="rgba(255,255,255,0.08379497040063143)" stroke-width="1.5"/><path d="M 600 265.27072242461145 L 600 255.61319792877404 L 620 253.90472600802565 L 640 255.0263886717978 L 660 247.11853305902295 L 680 245.54637863854617 L 700 298.7958317040793 L 720 233.03529012826684 L 740 273.97832171359903 L 760 250.49607223046175 L 780 233.60429473886998 L 800 251.48142851829843 L 820 273.60990078950647 L 840 232.37693855799088 L 860 290.94967041442726 L 880 270.3697609825266 L 900 250.9763752794644 L 920 261.18969774845755 L 940 254.27811588791414 L 960 280.0030395632699 L 980 296.81111975686406 L 1000 267.35448046388547 L 1020 248.28344191052312 L 1040 255.85559776420973 L 1060 232.70664279331234 L 1080 294.81468372280784 L 1100 239.1973884306938" fill="none" stroke="rgba(255,255,255,0.11193058693315833)" stroke-width="1.5"/><path d="M 600 327.6291907019913 L 600 359.7388569741055 L 620 315.98885816345484 L 640 342.883054875669 L 660 293.3267274815129 L 680 321.39668851471055 L 700 342.45318813673975 L 720 355.7499684281769 L 740 313.95653914501753 L 760 347.7641965137698 L 780 347.0737533292076 L 800 351.88079228692726 L 820 311.8756200830626 L 840 337.7602058578948 L 860 321.23472252059724 L 880 336.4365951969584 L 900 320.74823114826285 L 920 343.2484630267175 L 940 333.71321669532443 L 960 335.3333765764526 L 980 338.2458497678674 L 1000 307.30990364783736 L 1020 305.51355794523437 L 1040 335.6805834303465 L 1060 302.2230983298535 L 1080 315.396425728902 L 1100 323.3737183275407" fill="none" stroke="rgba(255,255,255,0.06670364001765847)" stroke-width="1.5"/><path d="M 600 390.75035576708615 L 600 415.6097337151895 L 620 385.39187434391505 L 640 412.3757085683612 L 660 369.42138837786104 L 680 391.4706319308433 L 700 405.26357000823566 L 720 414.15077329334434 L 740 404.49836784442925 L 760 408.4045250871944 L 780 400.52019181982274 L 800 405.29014865245404 L 820 412.59054003850696 L 840 379.43308854542494 L 860 363.73499245083315 L 880 375.39105218298533 L 900 377.93361825525045 L 920 375.4191836192845 L 940 369.94761133844696 L 960 377.186424659893 L 980 364.8320555576444 L 1000 396.057884086843 L 1020 365.41703969279473 L 1040 386.5073302443425 L 1060 402.1096026125292 L 1080 372.9532000768295 L 1100 378.41712581591946" fill="none" stroke="rgba(255,255,255,0.09443441198207438)" stroke-width="1.5"/><line x1="150" y1="480.1524510746822" x2="1050" y2="480.1524510746822" stroke="rgba(255,255,255,0.12)" stroke-width="2"/><circle cx="219.88265463151038" cy="480.1524510746822" r="5" fill="rgba(255,255,255,0.2)"/><line x1="219.88265463151038" y1="465.1524510746822" x2="219.88265463151038" y2="495.1524510746822" stroke="rgba(255,255,255,0.15)" stroke-width="2"/><circle cx="373.55388603173196" cy="480.1524510746822" r="5" fill="rgba(255,255,255,0.2)"/><line x1="373.55388603173196" y1="465.1524510746822" x2="373.55388603173196" y2="495.1524510746822" stroke="rgba(255,255,255,0.15)" stroke-width="2"/><circle cx="515.7174030132592" cy="480.1524510746822" r="5" fill="rgba(255,255,255,0.2)"/><line x1="515.7174030132592" y1="465.1524510746822" x2="515.7174030132592" y2="495.1524510746822" stroke="rgba(255,255,255,0.15)" stroke-width="2"/><circle cx="652.1531150583178" cy="480.1524510746822" r="5" fill="rgba(255,255,255,0.2)"/><line x1="652.1531150583178" y1="465.1524510746822" x2="652.1531150583178" y2="495.1524510746822" stroke="rgba(255,255,255,0.15)" stroke-width="2"/><circle cx="819.7413035109639" cy="480.1524510746822" r="5" fill="rgba(255,255,255,0.2)"/><line x1="819.7413035109639" y1="465.1524510746822" x2="819.7413035109639" y2="495.1524510746822" stroke="rgba(255,255,255,0.15)" stroke-width="2"/><circle cx="971.9839381892234" cy="480.1524510746822" r="5" fill="rgba(255,255,255,0.2)"/><line x1="971.9839381892234" y1="465.1524510746822" x2="971.9839381892234" y2="495.1524510746822" stroke="rgba(255,255,255,0.15)" stroke-width="2"/>
  <circle cx="57.35646178945899" cy="596.6854475392029" r="2.4218718353658915" fill="rgba(255,255,255,0.06125802930444479)"/><circle cx="1144.0775653347373" cy="169.42843499360606" r="2.573143558111042" fill="rgba(255,255,255,0.04904947585426271)"/><circle cx="26.05280578136444" cy="320.6876525050029" r="2.5370994764380157" fill="rgba(255,255,255,0.03887120706029236)"/><circle cx="546.123134996742" cy="383.89668800868094" r="2.18114231294021" fill="rgba(255,255,255,0.07798366741742939)"/><circle cx="422.23235769197345" cy="506.8230355367996" r="1.079408401157707" fill="rgba(255,255,255,0.055159050221554935)"/><circle cx="27.556411642581224" cy="411.6411289642565" r="2.0337884314358234" fill="rgba(255,255,255,0.05008950294693932)"/><circle cx="1134.394093696028" cy="94.98215148691088" r="2.8731058286502957" fill="rgba(255,255,255,0.06743591415695846)"/><circle cx="316.0917341709137" cy="560.0186856114306" r="1.432913860771805" fill="rgba(255,255,255,0.06376163741340861)"/><circle cx="878.22295865044" cy="579.6811951766722" r="2.433835858013481" fill="rgba(255,255,255,0.07594969198806212)"/><circle cx="809.0672948397696" cy="457.8131823660806" r="2.4980419212952256" fill="rgba(255,255,255,0.07215135854901747)"/><circle cx="801.1023086495697" cy="320.2484069997445" r="2.8582626418210566" fill="rgba(255,255,255,0.07139754979405552)"/><circle cx="981.9852476008236" cy="196.2308206083253" r="2.451190241612494" fill="rgba(255,255,255,0.0586574408877641)"/><circle cx="272.1230280585587" cy="554.4400783558376" r="2.632320446893573" fill="rgba(255,255,255,0.04258303845534101)"/><circle cx="154.83721811324358" cy="323.2089107274078" r="2.5296952221542597" fill="rgba(255,255,255,0.07176483347546309)"/><circle cx="741.4955986663699" cy="539.8513211519457" r="2.044610295444727" fill="rgba(255,255,255,0.07705675563309342)"/><circle cx="474.8098804615438" cy="192.53908329410478" r="1.5237048654817045" fill="rgba(255,255,255,0.03567330669146031)"/><circle cx="386.19618974626064" cy="296.3037780043669" r="2.7177495467476547" fill="rgba(255,255,255,0.03832344500813633)"/><circle cx="976.0455200448632" cy="496.6183876921423" r="1.3302518613636494" fill="rgba(255,255,255,0.06792438379023225)"/><circle cx="118.55245716869831" cy="240.6315585365519" r="2.613109384663403" fill="rgba(255,255,255,0.04224840967915952)"/><circle cx="358.7679762393236" cy="197.68666869727895" r="1.8287724424153566" fill="rgba(255,255,255,0.030486265623476356)"/>
  <text x="600" y="335" font-family="system-ui, -apple-system, 'Segoe UI', sans-serif" font-size="68" font-weight="700" fill="rgba(0,0,0,0.15)" text-anchor="middle" letter-spacing="1">GCSE Geography</text>
  <text x="600" y="332" font-family="system-ui, -apple-system, 'Segoe UI', sans-serif" font-size="68" font-weight="700" fill="white" text-anchor="middle" letter-spacing="1">GCSE Geography</text>
  <g transform="translate(1140, 575)">
    <rect x="0" y="0" width="40" height="40" rx="8" fill="rgba(255,255,255,0.15)"/>
    <text x="20" y="29" font-family="sans-serif" font-weight="bold" font-size="24" fill="rgba(255,255,255,0.6)" text-anchor="middle">K</text>
  </g>
</svg>